<?xml version="1.0" standalone="no"?>
<!DOCTYPE svg PUBLIC "-//W3C//DTD SVG 20010904//EN"
 "http://www.w3.org/TR/2001/REC-SVG-20010904/DTD/svg10.dtd">
<svg version="1.0" xmlns="http://www.w3.org/2000/svg"
 width="512.000000pt" height="512.000000pt" viewBox="0 0 512.000000 512.000000"
 preserveAspectRatio="xMidYMid meet">
<metadata>
Created by potrace 1.11, written by Peter Selinger 2001-2013
</metadata>
<g transform="translate(0.000000,512.000000) scale(0.100000,-0.100000)"
fill="#000000" stroke="none">
<path d="M0 2560 l0 -2560 425 0 425 0 0 690 0 690 -29 0 c-40 0 -111 67 -111
105 0 38 71 105 111 105 l29 0 0 154 c0 85 -4 157 -9 160 -17 11 -21 85 -6
128 8 25 15 77 15 123 -1 73 -2 78 -15 61 -10 -13 -27 -20 -51 -20 -39 0 -57
18 -48 48 7 21 66 86 78 86 4 0 14 6 21 14 12 11 15 82 19 373 2 197 4 367 4
378 1 11 -1 100 -4 198 l-5 177 25 0 c14 0 26 4 26 9 0 5 14 12 30 16 17 4 30
11 30 16 0 5 7 9 15 9 18 0 29 57 22 110 -5 42 -34 76 -72 86 -14 3 -25 10
-25 15 0 5 -11 9 -25 9 l-25 0 0 690 0 690 -425 0 -425 0 0 -2560z m696 -674
c7 -8 19 -16 26 -18 8 -3 13 -24 13 -59 0 -73 -22 -99 -86 -99 -62 0 -104 36
-103 90 1 38 28 80 51 80 7 0 13 5 13 10 0 15 70 12 86 -4z m-20 -488 c13 -13
24 -32 24 -43 0 -24 -41 -65 -65 -65 -23 0 -65 41 -65 64 0 24 40 66 64 66 10
0 29 -10 42 -22z"/>
<path d="M3410 3878 l0 -1241 21 24 c11 13 25 31 29 39 6 10 24 15 55 15 31 0
49 -5 55 -15 4 -8 18 -26 30 -40 28 -32 22 -76 -15 -116 -37 -40 -102 -41
-138 -2 -14 15 -27 33 -30 40 -3 7 -6 -71 -6 -174 -1 -161 1 -188 14 -188 8 0
15 -4 15 -8 0 -5 10 -19 22 -32 31 -34 30 -87 -4 -122 -14 -16 -30 -28 -37
-28 -7 0 -11 -32 -10 -102 1 -57 4 -93 6 -80 2 12 7 22 11 22 4 0 13 13 20 30
7 16 23 32 35 36 12 4 25 11 28 17 9 14 92 12 97 -2 2 -6 9 -11 15 -11 15 0
57 -44 57 -58 0 -6 5 -12 11 -14 15 -5 15 -91 0 -96 -6 -2 -11 -9 -11 -16 0
-23 -47 -64 -84 -74 -63 -18 -156 26 -156 74 0 7 -4 14 -9 14 -5 0 -12 10 -14
22 -2 13 -5 -58 -5 -157 -1 -121 2 -175 8 -165 7 10 12 12 18 4 4 -6 19 -14
34 -18 29 -7 78 -47 78 -64 0 -6 5 -12 11 -14 14 -5 14 -91 0 -96 -6 -2 -11
-9 -11 -16 0 -21 -46 -65 -77 -72 -15 -4 -31 -12 -35 -18 -6 -8 -11 -6 -18 4
-6 10 -10 -187 -10 -582 l0 -598 855 0 855 0 0 2560 0 2560 -855 0 -855 0 0
-1242z m796 -830 c13 -13 24 -29 24 -35 0 -7 5 -13 10 -13 6 0 10 -11 10 -25
0 -14 -4 -25 -10 -25 -5 0 -10 -5 -10 -11 0 -7 -12 -23 -27 -37 -33 -31 -91
-36 -117 -9 -9 9 -25 21 -34 26 -12 7 -17 23 -17 53 0 91 105 138 171 76z
m-328 -173 c18 -3 32 -13 32 -21 0 -8 5 -14 10 -14 6 0 10 -16 10 -35 0 -19
-4 -35 -10 -35 -5 0 -10 -7 -10 -15 0 -8 -6 -15 -14 -15 -8 0 -16 -6 -18 -12
-7 -21 -91 -16 -113 6 -22 22 -27 97 -7 104 6 2 12 10 12 17 0 7 14 16 30 20
17 4 30 12 30 18 0 9 2 9 8 1 4 -6 22 -15 40 -19z m504 -135 c55 -58 52 -77
-19 -156 -15 -17 -33 -24 -58 -24 -19 0 -35 4 -35 9 0 5 -11 19 -25 32 -13 13
-25 30 -25 37 0 6 -4 12 -10 12 -5 0 -10 9 -10 20 0 11 5 20 10 20 6 0 10 6
10 13 0 7 12 27 28 45 40 47 83 45 134 -8z m-307 -187 c43 -49 45 -52 45 -73
0 -11 -4 -20 -10 -20 -5 0 -10 -5 -10 -11 0 -15 -42 -59 -57 -59 -7 0 -13 -4
-13 -10 0 -5 -9 -10 -20 -10 -11 0 -20 5 -20 10 0 6 -6 10 -14 10 -24 0 -67
49 -73 83 -4 28 0 39 28 69 19 19 41 38 49 41 28 11 70 -2 95 -30z m476 -144
c44 -46 52 -93 22 -120 -10 -9 -26 -26 -35 -38 -29 -35 -80 -28 -123 16 -48
50 -48 89 3 142 51 55 82 54 133 0z m-831 1 c0 -5 6 -10 14 -10 7 0 26 -12 42
-27 39 -36 40 -91 1 -127 -16 -14 -35 -26 -43 -26 -7 0 -14 -4 -14 -10 0 -5
-9 -10 -20 -10 -11 0 -20 3 -20 8 0 4 -14 13 -30 20 -17 8 -33 24 -36 38 -3
13 -10 24 -15 24 -5 0 -9 9 -9 20 0 11 5 20 10 20 6 0 10 6 10 13 0 15 44 57
59 57 6 0 11 5 11 10 0 6 9 10 20 10 11 0 20 -4 20 -10z m500 -130 c0 -5 5
-10 11 -10 24 0 69 -59 69 -90 0 -33 -43 -90 -67 -90 -7 0 -13 -4 -13 -10 0
-5 -11 -10 -25 -10 -14 0 -25 5 -25 10 0 6 -6 10 -13 10 -25 0 -61 53 -61 90
0 35 38 90 63 90 6 0 11 5 11 10 0 6 11 10 25 10 14 0 25 -4 25 -10z m-312
-162 c2 -4 10 -8 17 -8 24 0 62 -44 73 -83 7 -25 7 -49 0 -73 -10 -37 -51 -84
-74 -84 -7 0 -14 -5 -16 -11 -2 -7 -24 -12 -48 -12 -24 0 -46 5 -48 12 -2 6
-9 11 -15 11 -15 0 -57 44 -57 58 0 6 -5 12 -11 14 -14 5 -16 88 -2 97 6 3 13
16 17 28 4 12 20 28 36 35 17 7 30 16 30 20 0 18 91 15 98 -4z m531 -188 c54
-53 54 -79 -3 -136 -56 -56 -82 -57 -133 -6 -51 50 -52 93 -3 145 48 51 84 50
139 -3z m-341 -142 c2 -4 9 -8 15 -8 15 0 57 -44 57 -58 0 -6 5 -12 11 -14 14
-5 16 -88 2 -97 -6 -3 -13 -15 -17 -27 -3 -11 -19 -27 -34 -35 -15 -8 -30 -18
-33 -23 -4 -5 -26 -9 -49 -9 -23 0 -45 4 -49 9 -3 5 -18 15 -33 23 -15 8 -31
24 -34 35 -4 12 -11 24 -17 27 -14 9 -12 92 2 97 6 2 11 8 11 14 0 15 43 58
58 58 6 0 12 4 12 9 0 20 90 19 98 -1z m-290 -160 c2 -4 9 -8 15 -8 15 0 57
-44 57 -58 0 -6 5 -12 11 -14 7 -2 12 -24 12 -48 0 -24 -5 -46 -12 -48 -6 -2
-11 -8 -11 -14 0 -14 -42 -58 -57 -58 -6 0 -13 -5 -15 -11 -2 -7 -24 -12 -48
-12 -24 0 -46 5 -48 12 -2 6 -9 11 -15 11 -15 0 -57 44 -57 58 0 6 -5 12 -11
14 -7 2 -12 24 -12 48 0 24 5 46 12 48 6 2 11 8 11 14 0 15 43 58 58 58 6 0
12 4 12 9 0 20 90 19 98 -1z m442 -158 c0 -5 8 -10 18 -10 19 0 62 -41 62 -59
0 -6 5 -11 10 -11 6 0 10 -12 10 -26 0 -26 -53 -84 -77 -84 -7 0 -13 -4 -13
-10 0 -5 -9 -10 -20 -10 -11 0 -20 4 -20 9 0 5 -11 12 -25 15 -14 4 -29 14
-32 24 -4 9 -11 20 -16 24 -16 10 -12 65 6 83 10 9 17 20 17 25 0 5 14 11 30
15 17 4 30 11 30 16 0 5 5 9 10 9 6 0 10 -4 10 -10z m-289 -182 c24 -7 41 -19
45 -32 4 -12 12 -24 18 -28 21 -14 12 -81 -16 -110 -14 -16 -30 -28 -37 -28
-6 0 -11 -4 -11 -10 0 -5 -18 -10 -40 -10 -22 0 -40 4 -40 9 0 5 -9 11 -19 14
-11 3 -22 17 -26 36 -4 17 -11 31 -16 31 -5 0 -9 14 -9 30 0 17 3 30 8 30 4 0
13 13 20 29 11 24 31 37 81 50 2 1 21 -4 42 -11z m-292 -176 c3 -5 13 -11 23
-15 9 -3 19 -19 23 -36 4 -17 11 -31 16 -31 5 0 9 -7 9 -15 0 -8 -3 -15 -8
-15 -4 0 -13 -13 -20 -29 -8 -18 -23 -32 -40 -36 -15 -4 -30 -12 -34 -18 -4
-6 -25 -12 -46 -12 -31 0 -46 7 -72 34 -34 33 -46 85 -23 99 6 4 13 17 17 29
4 12 17 25 29 29 11 4 28 13 36 21 15 16 79 12 90 -5z"/>
<path d="M1916 4003 c-30 -8 -86 -68 -86 -92 0 -11 -4 -21 -10 -21 -5 0 -10
-22 -10 -50 0 -27 5 -50 10 -50 6 0 10 -7 10 -16 0 -10 17 -33 37 -53 36 -35
39 -36 113 -36 74 0 77 1 113 36 20 20 37 43 37 53 0 9 5 16 10 16 6 0 10 23
10 50 0 28 -4 50 -10 50 -5 0 -10 10 -10 21 0 12 -16 38 -36 57 -32 31 -42 35
-97 38 -34 1 -71 0 -81 -3z"/>
<path d="M1150 3860 c0 -5 -7 -10 -15 -10 -8 0 -15 -6 -15 -14 0 -8 -5 -16
-11 -18 -14 -5 -15 -58 -2 -67 5 -3 12 -14 16 -23 3 -10 13 -18 22 -18 8 0 15
-4 15 -10 0 -5 14 -10 30 -10 17 0 30 4 30 9 0 5 9 11 20 14 11 3 20 12 20 21
0 9 5 16 10 16 6 0 10 14 10 30 0 17 -4 30 -10 30 -5 0 -10 7 -10 16 0 9 -9
18 -20 21 -11 3 -20 9 -20 14 0 5 -16 9 -35 9 -19 0 -35 -4 -35 -10z"/>
<path d="M1308 3584 c-10 -3 -18 -9 -18 -14 0 -4 -9 -10 -19 -13 -11 -3 -22
-17 -26 -36 -4 -17 -11 -31 -16 -31 -5 0 -9 -9 -9 -20 0 -11 4 -20 9 -20 5 0
12 -13 16 -29 3 -16 18 -42 32 -58 22 -23 35 -28 77 -28 30 0 51 5 54 13 2 6
9 12 16 12 6 0 20 10 31 23 24 26 29 137 8 145 -7 2 -13 10 -13 18 0 8 -6 14
-14 14 -8 0 -16 5 -18 11 -4 12 -82 21 -110 13z"/>
<path d="M1028 3422 c-16 -2 -28 -7 -28 -12 0 -5 -10 -10 -22 -12 -17 -2 -24
-11 -26 -33 -2 -16 -10 -34 -18 -38 -8 -4 -14 -15 -14 -22 0 -8 -4 -15 -10
-15 -5 0 -10 -11 -10 -25 0 -14 5 -25 10 -25 6 0 10 -7 10 -15 0 -18 47 -65
65 -65 8 0 15 -4 15 -10 0 -5 20 -10 45 -10 25 0 45 4 45 9 0 5 14 12 30 16
17 4 30 10 30 15 0 5 7 16 17 25 22 23 30 107 10 126 -8 8 -18 25 -21 37 -4
12 -18 25 -32 28 -13 3 -24 10 -24 14 0 10 -37 16 -72 12z"/>
<path d="M1500 3281 c0 -5 -12 -12 -26 -15 -37 -10 -54 -30 -61 -71 -3 -19
-10 -35 -14 -35 -5 0 -9 -7 -9 -15 0 -8 5 -15 10 -15 6 0 10 -7 10 -15 0 -8 9
-23 20 -32 11 -10 20 -23 20 -29 0 -7 14 -15 30 -19 17 -4 30 -11 30 -16 0 -5
14 -9 30 -9 17 0 30 4 30 9 0 5 13 12 29 16 17 3 34 17 42 33 8 15 17 29 21
32 4 3 10 24 14 46 4 30 2 45 -10 57 -9 8 -20 27 -26 41 -5 14 -16 26 -25 26
-8 0 -15 5 -15 10 0 6 -22 10 -50 10 -27 0 -50 -4 -50 -9z"/>
<path d="M1203 3103 c-24 -2 -43 -8 -43 -14 0 -5 -6 -9 -14 -9 -8 0 -18 -10
-22 -22 -4 -13 -12 -26 -18 -30 -15 -10 -14 -110 2 -115 6 -3 12 -11 12 -19 0
-8 8 -18 18 -21 9 -4 20 -11 24 -17 10 -14 117 -14 126 0 4 6 17 14 29 18 13
4 24 18 28 36 4 17 11 30 16 30 5 0 9 14 9 30 0 17 -4 30 -10 30 -5 0 -10 6
-10 13 0 14 -35 47 -50 47 -6 0 -10 4 -10 9 0 12 -29 42 -38 39 -4 -1 -26 -3
-49 -5z"/>
<path d="M938 2942 c-10 -2 -18 -10 -18 -17 0 -7 -6 -16 -12 -18 -10 -4 -10
-6 0 -6 6 -1 12 -8 12 -16 0 -8 6 -15 14 -15 8 0 17 -6 19 -12 4 -10 6 -10 6
0 1 6 7 12 15 12 15 0 24 25 18 51 -3 18 -27 27 -54 21z"/>
</g>
</svg>
